<?xml version="1.0" encoding="utf-8"?><svg viewBox="0 0 1255 800" xmlns="http://www.w3.org/2000/svg" xmlns:xlink="http://www.w3.org/1999/xlink"><style>:root>svg{display:none}:root>svg:target{display:block}</style><svg viewBox="0 0 40 41" id="arrow" xmlns="http://www.w3.org/2000/svg"><rect width="40" height="40" rx="20" transform="matrix(0 -1 -1 0 40 40.015)"/><path d="M19.47 13.484a.75.75 0 0 1 1.06 0l4.773 4.773a.75.75 0 1 1-1.06 1.06L20 15.076l-4.243 4.243a.75.75 0 0 1-1.06-1.06l4.773-4.774Zm-.22 12.53v-12h1.5v12h-1.5Z" fill="#fff"/></svg><svg fill="none" viewBox="0 0 24 24" id="close" xmlns="http://www.w3.org/2000/svg"><path d="m8 16 8-9M16 16 8 7" stroke="#fff" stroke-width="2" stroke-linecap="round"/></svg><svg viewBox="0 0 20 20" id="copy" xmlns="http://www.w3.org/2000/svg"><path d="M4.544 18.334h7.58a2.872 2.872 0 0 0 2.838-2.5h.495a2.88 2.88 0 0 0 2.877-2.877V4.544a2.88 2.88 0 0 0-2.877-2.877h-7.58A2.88 2.88 0 0 0 5 4.544V5h-.456a2.88 2.88 0 0 0-2.877 2.877v7.58a2.88 2.88 0 0 0 2.877 2.877Zm2.123-13.79c0-.668.543-1.21 1.21-1.21h7.58c.667 0 1.21.542 1.21 1.21v8.413c0 .667-.543 1.21-1.21 1.21H15v-6.29A2.88 2.88 0 0 0 12.124 5H6.667v-.456ZM3.334 7.877c0-.667.542-1.21 1.21-1.21h7.58c.667 0 1.21.543 1.21 1.21v7.58c0 .667-.543 1.21-1.21 1.21h-7.58c-.668 0-1.21-.543-1.21-1.21v-7.58Z"/></svg><svg viewBox="0 0 19 14" id="discord" xmlns="http://www.w3.org/2000/svg"><path d="M4.354 10.795c4.001 1.562 7.407 1.866 11.266-.565-.029.043-.792 1.173-2.8 1.753.425.58 1.004 1.244 1.004 1.244a6.656 6.656 0 0 0 3.633-1.074 2.756 2.756 0 0 0 1.23-2.559 18.9 18.9 0 0 0-1.216-5.06A5.934 5.934 0 0 0 12.481.73c-.197-.015-.339-.015-.424-.015l-.226.227c2.587.735 3.874 1.88 3.902 1.922A14.253 14.253 0 0 0 3.067 2.78S4.339 1.522 7.152.858l-.17-.17c-.296 0-.58.028-.876.07A5.958 5.958 0 0 0 1.54 4.506 19.446 19.446 0 0 0 .31 9.792a2.729 2.729 0 0 0 1.16 2.46 6.446 6.446 0 0 0 3.548 1.06s.508-.665 1.017-1.258c-1.908-.566-2.686-1.697-2.7-1.74l.36.184c.214.11.434.21.659.297Zm2.219-1.23A1.676 1.676 0 0 1 4.96 7.828a1.668 1.668 0 0 1 1.612-1.612c.918.029 1.64.806 1.611 1.74a1.679 1.679 0 0 1-1.611 1.61Zm5.767 0a1.676 1.676 0 0 1-1.611-1.738 1.668 1.668 0 0 1 1.611-1.612c.919.029 1.64.806 1.612 1.74a1.668 1.668 0 0 1-1.612 1.61Z"/></svg><svg viewBox="0 0 15 16" id="download" xmlns="http://www.w3.org/2000/svg"><path d="M14.057 12.441a.85.85 0 0 0-.577-.206H9.543l-1.154 1a1.743 1.743 0 0 1-1.153.412c-.441 0-.826-.137-1.154-.412l-1.146-1H.991a.851.851 0 0 0-.577.206.638.638 0 0 0-.237.5v2.353c0 .196.079.363.237.5A.85.85 0 0 0 .991 16h12.49a.85.85 0 0 0 .576-.206.638.638 0 0 0 .237-.5v-2.353a.638.638 0 0 0-.237-.5ZM6.782 10.172c.121.12.273.18.454.18.182 0 .333-.06.454-.18l4.52-4.263c.209-.184.256-.406.142-.666-.114-.247-.313-.37-.595-.371H9.173V.609a.57.57 0 0 0-.191-.428A.64.64 0 0 0 8.528 0H5.944a.64.64 0 0 0-.454.18A.57.57 0 0 0 5.3.61v4.263H2.716c-.283 0-.481.124-.596.371-.114.26-.067.482.142.666l4.52 4.263Z"/></svg><svg viewBox="0 0 17 16" id="instagram" xmlns="http://www.w3.org/2000/svg"><path d="M12.5 0h-8c-2.24 0-4 1.76-4 4v8c0 2.24 1.76 4 4 4h8c2.24 0 4-1.76 4-4V4c0-2.24-1.76-4-4-4Zm2.4 12c0 1.36-1.04 2.4-2.4 2.4h-8c-1.36 0-2.4-1.04-2.4-2.4V4c0-1.36 1.04-2.4 2.4-2.4h8c1.36 0 2.4 1.04 2.4 2.4v8Z"/><path d="M8.5 4c-2.24 0-4 1.76-4 4s1.76 4 4 4 4-1.76 4-4-1.76-4-4-4Zm0 6.4c-1.36 0-2.4-1.04-2.4-2.4 0-1.36 1.04-2.4 2.4-2.4 1.36 0 2.4 1.04 2.4 2.4 0 1.36-1.04 2.4-2.4 2.4ZM12.5 4.8a.8.8 0 1 0 0-1.6.8.8 0 0 0 0 1.6Z"/></svg><svg fill="none" viewBox="0 0 698 363" id="line_about" xmlns="http://www.w3.org/2000/svg"><path d="M1 337.99c20.833-40 76.8-103.423 178-61.023 126.5 53 402 209 438.5-111C630.079 55.689 661.232 10.42 697.5.945" stroke="#fff" stroke-opacity=".25"/></svg><svg fill="none" viewBox="0 0 748 800" id="line_banner" xmlns="http://www.w3.org/2000/svg"><path opacity=".8" d="M786.65 198.754c-40.053-12.619-118.66-17.529-157.374 77.018-48.392 118.183-102.111 365.627-361.791 215.626C156 427 28.5 512.255 28.5 616" stroke="#fff" stroke-width="2" stroke-linecap="round"/><path d="m40.117 597.726-12.304 18.597-8.804-20.706" stroke="#fff" stroke-width="2" stroke-linecap="round"/></svg><svg fill="none" viewBox="0 0 730 800" id="line_contacts" xmlns="http://www.w3.org/2000/svg"><path opacity=".5" d="M786.651 198.382c-40.053-12.619-118.66-17.529-157.374 77.018-48.392 118.182-102.111 365.626-361.791 215.626-111.485-64.398-238.985 20.857-238.985 124.602" stroke="#fff" stroke-width="2" stroke-linecap="round"/><path opacity=".5" d="m40.117 597.354-12.304 18.597-8.804-20.707" stroke="#fff" stroke-width="2" stroke-linecap="round"/></svg><svg fill="none" viewBox="0 0 751 746" id="line_hopping" xmlns="http://www.w3.org/2000/svg"><path opacity=".5" d="M5 512c223.5 57.5 214-181 429.5-66.5C618.367 543.193 194 582 655 138" stroke="#fff" stroke-width="2" stroke-linecap="round"/><path opacity=".5" d="M18.892 527.062 3.275 511.145l22.088-4.285" stroke="#fff" stroke-width="2" stroke-linecap="round"/></svg><svg fill="none" viewBox="0 0 1255 799" id="line_main" xmlns="http://www.w3.org/2000/svg"><path opacity=".8" d="M1584.9-142.827c1.58 36.238-11.9 102.92-99.44 114.084-109.42 13.954-327.88 3.455-260.78 253.648 28.8 107.413-70.83 194.73-157.39 171.537M708.238 661.128c-11.045 34.55-25.824 100.425-133.738 92.372-134-10-252 79-264.5 307-6.088 111.04-200.622-20.51-273.834-72.182" stroke="#fff" stroke-width="2" stroke-linecap="round"/></svg><svg fill="none" viewBox="0 0 414 483" id="line_stacking" xmlns="http://www.w3.org/2000/svg"><path d="M1 433.49c11.5-25 59.913-79.118 127-9 121.082 126.553 285 31.5 285-160.5 0-220-136.707-251.086-183.256-226.223C132.284 89.822 348.548 169.719 360.354.99" stroke="#fff" stroke-opacity=".25"/></svg><svg fill="none" viewBox="0 0 338 396" id="line_staking" xmlns="http://www.w3.org/2000/svg"><path opacity=".5" d="M23.952 315.784c-132.532 101.845 354.901 100.065 309.093 20.461-35.671-44.13-246.9-98.707-276.628-160.551C-23.819 8.781 409.095 261.972 276.118 1.354" stroke="url(#ma)" stroke-width="2" stroke-linecap="round" stroke-dasharray="2 8"/><defs><linearGradient id="ma" x1="290" y1="113.5" x2="13.001" y2="377.5" gradientUnits="userSpaceOnUse"><stop offset=".407" stop-color="#fff"/><stop offset="1" stop-color="#999" stop-opacity="0"/></linearGradient></defs></svg><svg fill="none" viewBox="0 0 510 615" id="line_system" xmlns="http://www.w3.org/2000/svg"><path d="M493.463 485.643c-33.206 3.336-93.406-4.447-98.783-78.263-6.721-92.27 5.368-308.654-217.442-207.757-178.249 80.717-158.663-28.869-126.59-93.752" stroke="#fff" stroke-opacity=".25" stroke-dasharray="6 6"/><path d="m474 477 21 7.5-18 13.5" stroke="#fff" stroke-opacity=".25" stroke-dasharray="6 6"/></svg><svg fill="none" viewBox="0 0 267 315" id="line_system_mob" xmlns="http://www.w3.org/2000/svg"><path d="M188.329 304.691c2.036-20.262-2.713-56.995-47.754-60.276-56.301-4.101-188.334 3.276-126.77-132.679C63.059 2.973-3.81 14.923-43.4 34.494" stroke="url(#oa)" stroke-opacity=".25" stroke-dasharray="6 6"/><path d="m183.056 292.814 4.576 12.814 8.238-10.983" stroke="#fff" stroke-opacity=".25" stroke-dasharray="6 6"/><defs><linearGradient id="oa" x1="-65.898" y1="73.462" x2="224.898" y2="241.353" gradientUnits="userSpaceOnUse"><stop stop-color="#fff" stop-opacity="0"/><stop offset="1" stop-color="#fff"/></linearGradient></defs></svg><svg fill="none" viewBox="0 0 396 496" id="line_tagline" xmlns="http://www.w3.org/2000/svg"><path d="M186.485 69.439C253.123 7.435 335.536 44.015 348.824 93.49c18.583 69.191 7.254 186.004-320.745 313.504" stroke="#fff" stroke-opacity=".25"/></svg><svg fill="none" viewBox="0 0 16 16" id="list" xmlns="http://www.w3.org/2000/svg"><path d="M2.667 7.294s1.94 0 3.152 1.412C7.03 10.118 7.273 12 7.273 12l6.06-8" stroke="#6EF7A5" stroke-width="2" stroke-linecap="round"/></svg><svg fill="none" viewBox="0 0 16 15" id="list2" xmlns="http://www.w3.org/2000/svg"><path d="M8.03.524c.553 2.214 2.822 6.641 7.47 6.641M7.623.524C7.07 2.738 4.801 7.165.153 7.165M8.03 14.166c.553-2.213 2.822-6.64 7.47-6.64M7.623 14.166c-.553-2.213-2.822-6.64-7.47-6.64" stroke="#6EF7A5"/></svg><svg viewBox="0 0 17 18" id="reddit" xmlns="http://www.w3.org/2000/svg"><path d="M15.027 7.115c-.53 0-.997.224-1.34.571-1.264-.887-2.968-1.458-4.856-1.52l.98-4.483 3.123.71c0 .776.623 1.41 1.388 1.41.779 0 1.405-.65 1.405-1.427 0-.776-.622-1.426-1.404-1.426-.546 0-1.016.334-1.25.79L9.622.964c-.173-.047-.343.08-.39.256L8.158 6.163c-1.873.08-3.559.65-4.827 1.538a1.87 1.87 0 0 0-1.359-.586c-1.968 0-2.613 2.68-.81 3.597a4.08 4.08 0 0 0-.093.887c0 3.011 3.343 5.45 7.447 5.45 4.121 0 7.464-2.439 7.464-5.45a3.49 3.49 0 0 0-.11-.902c1.767-.92 1.116-3.58-.841-3.582ZM4.021 10.902c0-.79.623-1.426 1.405-1.426.765 0 1.388.632 1.388 1.426a1.4 1.4 0 0 1-1.388 1.41 1.405 1.405 0 0 1-1.405-1.41Zm7.587 3.359c-1.289 1.307-4.925 1.307-6.215 0-.142-.126-.142-.349 0-.492a.336.336 0 0 1 .468 0c.984 1.024 4.249 1.041 5.276 0a.336.336 0 0 1 .467 0c.145.144.145.367.004.492Zm-.029-1.947a1.4 1.4 0 0 1-1.387-1.408c0-.79.623-1.426 1.387-1.426.78 0 1.406.632 1.406 1.426a1.41 1.41 0 0 1-1.406 1.408Z"/></svg><svg fill="none" viewBox="0 0 16 17" id="send" xmlns="http://www.w3.org/2000/svg"><g clip-path="url(#ta)"><path d="M13.892 7.27 2.606 1.764a.71.71 0 0 0-1.023.64v.02c0 .095.012.19.035.283L2.7 7.037c.03.119.13.206.251.22l4.759.528a.326.326 0 0 1 0 .648l-4.759.529a.292.292 0 0 0-.25.219l-1.083 4.33a1.166 1.166 0 0 0-.035.283v.02a.71.71 0 0 0 1.023.64l11.286-5.506a.934.934 0 0 0 0-1.678Z" fill="#050209"/></g><defs><clipPath id="ta"><path fill="#fff" transform="translate(1 1.11)" d="M0 0h14v14H0z"/></clipPath></defs></svg><svg fill="none" viewBox="0 0 40 41" id="star" xmlns="http://www.w3.org/2000/svg"><path d="M21.245 1.875c.03-.077.07-.11.103-.13a.266.266 0 0 1 .158-.028.266.266 0 0 1 .147.062c.029.026.06.068.072.15l1.272 8.46a1.75 1.75 0 0 0 2.57 1.276l7.507-4.107a.233.233 0 0 1 .162-.033.266.266 0 0 1 .139.08.266.266 0 0 1 .073.142.233.233 0 0 1-.04.16l-4.465 7.3a1.75 1.75 0 0 0 1.15 2.629l8.39 1.679c.08.016.12.049.145.079a.266.266 0 0 1 .055.15.266.266 0 0 1-.036.156.233.233 0 0 1-.134.097l-8.112 2.722a1.75 1.75 0 0 0-.81 2.753l5.349 6.679a.234.234 0 0 1 .06.154c0 .045-.017.1-.054.15a.266.266 0 0 1-.128.097.233.233 0 0 1-.165-.012l-7.963-3.13A1.75 1.75 0 0 0 24.3 31l-.196 8.553a.232.232 0 0 1-.053.157.266.266 0 0 1-.138.08.266.266 0 0 1-.16-.007.234.234 0 0 1-.119-.116l-4.089-7.516a1.75 1.75 0 0 0-2.852-.319l-5.649 6.427a.233.233 0 0 1-.14.086.265.265 0 0 1-.158-.027.266.266 0 0 1-.118-.11.233.233 0 0 1-.016-.164l1.698-8.386a1.75 1.75 0 0 0-1.98-2.077l-8.457 1.292a.234.234 0 0 1-.164-.024.266.266 0 0 1-.103-.123.266.266 0 0 1-.02-.159.233.233 0 0 1 .093-.137l6.692-5.332a1.75 1.75 0 0 0-.181-2.864L.88 15.787a.233.233 0 0 1-.11-.123.266.266 0 0 1 0-.16.265.265 0 0 1 .087-.135.233.233 0 0 1 .159-.045l8.554.216a1.75 1.75 0 0 0 1.702-2.31L8.53 5.125a.233.233 0 0 1-.004-.165.266.266 0 0 1 .103-.123.266.266 0 0 1 .153-.048c.038.002.09.014.15.068l6.414 5.664a1.75 1.75 0 0 0 2.789-.675l3.11-7.971Z"/></svg><svg viewBox="0 0 17 14" id="twitter" xmlns="http://www.w3.org/2000/svg"><path d="M16.5 2.077c-.6.295-1.2.394-1.9.492.7-.394 1.2-.984 1.4-1.772-.6.394-1.3.59-2.1.788A3.52 3.52 0 0 0 11.5.6C9.8.6 8.3 2.077 8.3 3.85c0 .295 0 .492.1.688C5.7 4.44 3.2 3.16 1.6 1.191c-.3.492-.4.984-.4 1.674 0 1.083.6 2.067 1.5 2.658-.5 0-1-.197-1.5-.394A3.19 3.19 0 0 0 3.8 8.28c-.3.098-.6.098-.9.098-.2 0-.4 0-.6-.098.4 1.28 1.6 2.265 3.1 2.265-1.1.886-2.5 1.378-4.1 1.378H.5c1.5.886 3.2 1.477 5 1.477 6 0 9.3-4.923 9.3-9.157V3.85c.7-.492 1.3-1.083 1.7-1.772Z"/></svg><svg viewBox="0 0 17 13" id="youtube" xmlns="http://www.w3.org/2000/svg"><path d="M16.17 2.53c-.184-.722-.725-1.29-1.41-1.485C13.508.685 8.5.685 8.5.685s-5.008 0-6.26.346c-.673.194-1.226.777-1.41 1.498C.5 3.847.5 6.58.5 6.58s0 2.747.33 4.05c.184.722.724 1.29 1.41 1.484 1.265.361 6.26.361 6.26.361s5.008 0 6.26-.347c.686-.194 1.226-.763 1.41-1.484.33-1.318.33-4.05.33-4.05s.013-2.746-.33-4.064ZM6.905 9.103V4.055l4.165 2.524-4.165 2.525Z"/></svg></svg>